<svg width="249" height="248" viewBox="0 0 249 248" fill="none" xmlns="http://www.w3.org/2000/svg">
<g clip-path="url(#clip0_25_103)">
<path d="M124.204 20.6659C67.1661 20.6659 20.8745 66.9575 20.8745 123.995C20.8745 181.033 67.1661 227.325 124.204 227.325C181.242 227.325 227.533 181.033 227.533 123.995C227.533 66.9575 181.242 20.6659 124.204 20.6659ZM124.204 206.659C78.6356 206.659 41.5404 169.564 41.5404 123.995C41.5404 78.427 78.6356 41.3318 124.204 41.3318C169.772 41.3318 206.867 78.427 206.867 123.995C206.867 169.564 169.772 206.659 124.204 206.659ZM164.296 85.6601L103.538 146.418L84.1121 126.992C80.0822 122.962 73.5725 122.962 69.5427 126.992C65.5128 131.022 65.5128 137.531 69.5427 141.561L96.305 168.324C100.335 172.353 106.845 172.353 110.874 168.324L178.968 100.23C182.998 96.1997 182.998 89.6899 178.968 85.6601C174.939 81.6302 168.326 81.6302 164.296 85.6601Z" fill="#59CB4F" fill-opacity="0.61"/>
</g>
<defs>
<clipPath id="clip0_25_103">
<rect width="247.991" height="247.991" fill="white" transform="translate(0.208496)"/>
</clipPath>
</defs>
</svg>
